<svg width="12" height="10" viewBox="0 0 12 10" fill="none" xmlns="http://www.w3.org/2000/svg">
<path d="M5.99999 0.199997C6.56578 0.199997 7.10841 0.424758 7.50848 0.824836C7.90856 1.22491 8.13332 1.76753 8.13332 2.33333C8.13332 2.72266 8.03199 3.08533 7.84532 3.4H9.19999C9.70666 3.4 10.1333 3.75733 10.24 4.232C11.312 8.504 11.3333 8.616 11.3333 8.73333C11.3333 9.01623 11.2209 9.28754 11.0209 9.48758C10.8209 9.68762 10.5496 9.8 10.2667 9.8H1.73332C1.45043 9.8 1.17911 9.68762 0.979076 9.48758C0.779037 9.28754 0.666656 9.01623 0.666656 8.73333C0.666656 8.616 0.68799 8.504 1.75999 4.232C1.86666 3.75733 2.29332 3.4 2.79999 3.4H4.15466C3.96401 3.07701 3.86448 2.70838 3.86666 2.33333C3.86666 1.76753 4.09142 1.22491 4.4915 0.824836C4.89157 0.424758 5.43419 0.199997 5.99999 0.199997ZM5.99999 1.26666C5.71709 1.26666 5.44578 1.37904 5.24574 1.57908C5.0457 1.77912 4.93332 2.05043 4.93332 2.33333C4.93332 2.61623 5.0457 2.88754 5.24574 3.08758C5.44578 3.28762 5.71709 3.4 5.99999 3.4C6.28289 3.4 6.5542 3.28762 6.75424 3.08758C6.95428 2.88754 7.06666 2.61623 7.06666 2.33333C7.06666 2.05043 6.95428 1.77912 6.75424 1.57908C6.5542 1.37904 6.28289 1.26666 5.99999 1.26666Z" fill="#B7BDC9"/>
</svg>
